<svg version="1" xmlns="http://www.w3.org/2000/svg" width="306.667" height="306.667" viewBox="0 0 230.000000 230.000000"><path d="M60.3 14.6c-4.7 2.7-5.1 3.5-2.8 5.4 1.4 1.2 1.3 1.5-.5 3.5-1.1 1.1-2.2 3.7-2.4 5.6-.2 1.8-.9 3.3-1.5 3.2-1.7-.4-1.3 1.8.5 3.2 1.5 1 1.3 1.4-1.8 3.3-7.3 4.5-7.4 5-1.5 12.3 8.8 11 10.5 12.9 12 12.9.8 0 6-1.6 11.6-3.5 9.8-3.4 10.6-3.5 24.8-3.5 13.5 0 15.3.2 24.1 3 5.2 1.7 10.1 2.9 10.8 2.6.7-.3 4.4-4.4 8.3-9.3l7.2-8.8-2.8-2.5c-1.6-1.4-3.9-3.3-5.3-4.2-2.1-1.5-2.3-1.9-1-2.8.9-.6 1.1-1.3.5-1.8-.5-.4-1.8-2.9-2.7-5.7l-1.7-5 2.7-2.1 2.6-2.2-4.9-3.1c-2.7-1.7-5.4-3.1-6.1-3.1-.6 0-2.3 1.5-3.8 3.2-2.5 3.1-3.2 3.3-9.1 3.4-8.5.2-13.2 1.9-15 5.4-1.2 2.4-2 2.8-5.5 2.7-2.2 0-4-.4-4-.8 0-1.2 3.3-1.6 5.8-.7 1.3.4 2.1.4 1.8-.1-1-1.6-4.5-1.9-7-.6-2.2 1.2-2.6 1.1-3.1-.4-.8-2.8-6-5.1-11.9-5.4-4.7-.3-6.1-.8-8.9-3.5-1.8-1.8-3.7-3.2-4.2-3.2-.6 0-2.9 1.2-5.2 2.6z"/><path d="M148.8 49.8c-1.3 1.5-4.8 5.7-7.7 9.4-3.9 5-5.9 6.8-7.6 6.8-1.3 0-6.4-1.5-11.2-3.3-8.4-3.1-9.4-3.2-23.3-3.2H84.5l-11.9 4.2c-13.8 4.9-11.8 5.6-21.6-6.6-3.6-4.4-7.3-8.3-8.2-8.6-1.7-.6-9.7 4.1-9.8 5.7 0 1.6 21.6 17.1 27.3 19.6 6.1 2.6 12.7 3.2 37 3.2 31 0 33.3-.4 46.7-9.5 5.2-3.5 11.3-8 13.5-9.8 3.5-3.1 3.8-3.6 2.5-5.2-.7-.9-3-2.5-5-3.5l-3.7-1.9-2.5 2.7zm-28.3 17c7.4 2.3 7.8 2.5 5.5 3.5-1.5.6-12.6 1.2-27 1.4-30.9.4-34.7-.4-22.7-4.5 8.9-3 8.9-3 23.2-3 11 .1 14.3.5 21 2.6zM72 83.5V87h50v-7H72v3.5zM72 91v3h50v-6H72v3zM72 99v3h50v-6H72v3zM72 107v3h50v-6H72v3zM73.7 113.1c-1 .6-1.4 3.9-1.6 12.3l-.2 11.6h50.3l-.5-11.6c-.3-6.3-.8-11.8-1.1-12.1-.9-.9-45.3-1.1-46.9-.2z"/><path d="M179.7 119.7c-.6 1.1-1.6 7.9-3.2 21.8-1.2 10.2-.8 9.7-14.2 19.9l-2.5 1.9.6-7.4c1.9-25.5 2-28.8.2-29.5-1-.4-2.1-.3-2.6.2-.4.5-1.1 6.5-1.5 13.4-.4 6.8-.8 12.7-1 13-.2.4-.5 3-.6 5.8l-.3 5.3-7-.4c-5.2-.2-7-.7-6.8-1.6.9-4.1.2-14.2-1.2-16.9-2-3.8-3.9-4.5-8-2.8-4.3 1.8-9.2 9.2-12 18.3-.7 2.2-1.3 2.3-9.7 2.3-4.9 0-8.9-.2-8.9-.4 0-.3 2.7-3.9 6-8 6.8-8.5 10-13.5 10-15.4 0-.9-4.5-1.2-19-1.2H79v2.8c0 3 1.6 5.8 7 11.5 4.9 5.4 9 11.7 9 13.9 0 1 .6 1.8 1.3 1.9 2.5.2 13.3.7 17 .8l3.9.1-.7 4.2c-.4 2.4-.8 4.4-1 4.6-.4.4-3.9.9-11.5 1.6-10.8 1.1-37.3 4.2-43 5.1-1.4.2-4.7.7-7.5 1.1-6.8.9-19.7 4.2-20.9 5.4-1.8 1.8-1.5 4 .7 5.2 1.5.8 7.4.9 19.7.5 9.6-.4 18.4-.9 19.5-1.1 1.1-.2 6.1-.7 11-1 5-.4 10.8-.9 13-1.1 2.2-.3 7.2-.7 11-1l7-.5v3c.1 2-.4 3-1.5 3.1-.8 0-2.2.2-3 .3-.8.2-4.6.6-8.5 1-13 1.3-16.9 1.7-30.8 3.7-7.6 1.1-16.2 2.7-19 3.7-4.3 1.4-5.3 2.1-5.5 4.3-.2 2.1.2 2.8 2 3.2 5.7 1.4 18.3 2 44.4 1.9 41.6 0 57.7-1.2 55.9-4.2-.3-.5-3.3-1-6.6-1h-6l2.6-3.7c1.4-2.1 2.5-4.3 2.5-5 0-.7.6-1.3 1.3-1.4.6 0 2.3-.2 3.7-.4 5.8-.7 9.6-.7 11.3 0 .9.4 2.3.2 3-.3.7-.6 7.8-2 15.7-3.2 22.7-3.3 30-5.9 30-10.9 0-2.8-5-4.1-15.6-4.1-6.8 0-9.4-.3-9.6-1.3-.4-3.8-.1-4.3 4.2-5.7 6.3-2.1 6.2-4.9-.3-6.9l-4.8-1.5.3-6.4c.3-7.1.3-7.1 4.1-9.5 3.8-2.4 3.6-5.1-.3-4.5-1.6.3-3 .1-3-.3s.4-4.1 1-8.1c1.8-13.4 1.9-15.1.9-17-1-1.9-2.5-2.4-3.2-1.1zm-42.3 33.7c-.1 2.3-.7 5.4-1.3 6.9-1 2.5-1.5 2.7-6.6 2.7-3 0-5.5-.3-5.5-.7 0-.4 1.6-4 3.6-8.1 4-8.1 7.1-10.5 9-6.9.6 1.1 1 3.9.8 6.1zm37.6 8.1c0 4.1-.2 4.5-2.2 4.1-1.3-.3-3.4-.5-4.8-.6-2.4-.1-2.2-.3 2-4 2.5-2.2 4.6-4 4.8-4 .1 0 .2 2 .2 4.5zm-41.2 8.7c.9.9 1.7 1 3 .2 1.5-.9 3.6-1 13-.5 2.1.1 2.2.2.7 2.5-1.4 2.1-2.7 2.4-14.3 3.6-7 .7-13.4 1.4-14.3 1.5-1.4.3-1.5-.2-.8-3.3.5-2 .9-4 .9-4.5 0-1.2 10.5-.8 11.8.5zm40.1 1.4c.2.2-.4.4-1.5.5-1 0-4.5.4-7.6.8-5.3.6-5.8.5-5.8-1.2s.6-1.8 7.3-1.2c3.9.4 7.4.9 7.6 1.1zm1.1 7.9c0 1.9-.5 2.5-2.2 2.6-1.3 0-4.9.3-8 .5-5.2.4-5.8.3-5.8-1.4 0-1.9 3.6-2.9 14.8-4.1.7 0 1.2 1 1.2 2.4zm-21 2c0 .9-1 1.6-2.2 1.6-1.3.1-3.3.3-4.5.4-1.3.1-2.3-.3-2.3-1.1 0-1.5 1.2-1.9 5.7-2.2 2.4-.2 3.3.2 3.3 1.3zm-10.6.9c-.4 1-3.2 1.6-10.2 2.1-5.3.4-10.3.7-11.1.8-.8.1-1.6-.4-1.8-1.1-.3-.8.8-1.2 3.4-1.3 4 0 13.7-.9 14-1.3.1-.1 1.6-.3 3.2-.4 2.3-.2 2.9.1 2.5 1.2zm-29.1 2.7c-.9.9-16.3 2.8-36.7 4.3-14.8 1.2-6.9-.6 13.1-2.9 24.1-2.8 25-2.8 23.6-1.4zm62.9 3.9c1.7 1.8 1.6 1.9-2 2.4-2 .3-6.2.8-9.3 1.2-5.4.5-5.7.5-6.1-2-.5-2.7-1.3-2.5 12.2-3.3 2.3-.1 4 .4 5.2 1.7zm16.3-.6c-8.6 2.1-13.8 2.6-12.6 1.2.6-.7.8-1.6.4-1.9-.3-.4 3.4-.7 8.3-.6l8.9.1-5 1.2zm-39 3.2c.1 1.9-.5 2.3-4.8 2.8-2.7.4-5.1.5-5.4.3-.2-.3-.1-1.7.3-3.1.6-2.5 1-2.7 5.2-2.4 3.8.3 4.6.6 4.7 2.4zm-13.6 1.3c-.8 2.2-1.7 3-3.2 3-3-.2-16 1.2-16.9 1.8-.5.2-.8-1.2-.8-3.1v-3.5l5.8-.3c3.1-.2 8-.4 10.9-.6l5.2-.3-1 3zm-4.6 11c-2.3 3.6-4.4 5-7.4 5.1-2.4 0-6.9-3.2-6.9-5 0-.5 2.6-1.1 5.8-1.5 3.1-.4 6.2-.8 6.7-.9 3-.8 3.5-.2 1.8 2.3zm-19 3.6l1.7 3.5-29.8-.1c-33.9-.1-34.5-.8-3.2-4.2 30.7-3.4 29.3-3.5 31.3.8z"/></svg>